<?xml version="1.0" encoding="iso-8859-1"?>
<!-- Uploaded to: SVG Repo, www.svgrepo.com, Generator: SVG Repo Mixer Tools -->
<svg version="1.1" id="Layer_1" xmlns="http://www.w3.org/2000/svg" xmlns:xlink="http://www.w3.org/1999/xlink" 
	 viewBox="0 0 512 512" xml:space="preserve">
<g>
	<rect x="13.128" y="13.128" style="fill:#EFEFEF;" width="485.744" height="485.744"/>
	<path style="fill:#EFEFEF;" d="M446.359,65.641v238.933c-38.728,0-38.728-26.256-77.456-26.256s-38.728,26.256-77.47,26.256
		c-38.728,0-38.728-26.256-77.456-26.256s-38.728,26.256-77.443,26.256c-36.405,0-38.584-23.198-70.892-25.981V65.641H446.359z"/>
</g>
<path style="fill:#F4A026;" d="M180.771,289.489c-2.301-7.399-3.541-15.267-3.541-23.423c0-43.503,35.266-78.769,78.769-78.769
	s78.769,35.266,78.769,78.769c0,9.297-1.611,18.218-4.569,26.499L180.771,289.489z"/>
<path style="fill:#61ACD2;" d="M446.359,304.574v89.272H65.641V278.594c32.309,2.783,34.488,25.981,70.892,25.981
	c38.715,0,38.715-26.256,77.443-26.256s38.728,26.256,77.456,26.256c38.741,0,38.741-26.256,77.47-26.256
	S407.631,304.574,446.359,304.574z"/>
<path d="M498.872,0H13.128C5.879,0,0,5.879,0,13.128v485.744C0,506.121,5.879,512,13.128,512h485.744
	c7.249,0,13.128-5.879,13.128-13.128V13.128C512,5.879,506.121,0,498.872,0z M485.744,485.744H26.256V26.256h459.487V485.744z"/>
<path d="M65.641,406.974h380.718c7.249,0,13.128-5.879,13.128-13.128v-89.272V65.641c0-7.249-5.879-13.128-13.128-13.128H65.641
	c-7.249,0-13.128,5.879-13.128,13.128v212.953v115.253C52.513,401.096,58.392,406.974,65.641,406.974z M78.769,380.718v-85.333
	l-0.041-0.104c4.092,1.872,7.691,4.307,11.714,7.035c10.113,6.856,22.697,15.386,46.091,15.386c23.387,0,35.971-8.533,46.083-15.389
	c8.955-6.072,16.027-10.868,31.362-10.868c15.334,0,22.406,4.794,31.362,10.866c10.111,6.857,22.699,15.39,46.093,15.39
	c23.402,0,35.992-8.535,46.108-15.392c8.956-6.07,16.03-10.865,31.362-10.865c15.334,0,22.406,4.794,31.362,10.866
	c8.031,5.444,17.643,11.931,32.966,14.378v64.028H78.769z M190.359,266.065c0-36.194,29.447-65.641,65.641-65.641
	s65.641,29.447,65.641,65.641c0,5.699-0.722,11.309-2.15,16.741c-7.555,4.977-14.65,8.64-28.058,8.64
	c-15.334,0-22.406-4.794-31.362-10.866c-10.113-6.857-22.699-15.39-46.094-15.39c-9.439,0-17.097,1.401-23.564,3.509
	C190.379,267.823,190.359,266.945,190.359,266.065z M78.769,78.769h354.462v211.165c-7.21-1.881-12.31-5.338-18.234-9.354
	c-10.113-6.857-22.7-15.39-46.094-15.39c-8.242,0-15.121,1.073-21.045,2.745c0.013-0.624,0.039-1.245,0.039-1.869
	c0-50.672-41.225-91.897-91.897-91.897s-91.897,41.225-91.897,91.897c0,5.425,0.487,10.807,1.423,16.103
	c-7.92,5.295-15.034,9.278-28.992,9.278c-15.332,0-22.405-4.793-31.359-10.864c-6.753-4.576-14.764-10.008-26.405-13.036V78.769z"/>
<path d="M292.511,154.132c1.348,0.437,2.715,0.646,4.061,0.646c5.534,0,10.68-3.528,12.484-9.074l4.869-14.983
	c2.241-6.896-1.533-14.303-8.428-16.544c-6.9-2.238-14.302,1.532-16.544,8.428l-4.869,14.983
	C281.842,144.485,285.616,151.891,292.511,154.132z"/>
<path d="M112.103,233.551l14.983,4.869c1.348,0.437,2.715,0.646,4.061,0.646c5.534,0,10.68-3.528,12.484-9.074
	c2.241-6.896-1.533-14.303-8.428-16.544l-14.983-4.869c-6.899-2.234-14.302,1.532-16.544,8.428
	C101.434,223.904,105.208,231.31,112.103,233.551z"/>
<path d="M372.983,220.033c2.005,0,4.04-0.461,5.948-1.434l14.037-7.151c6.46-3.291,9.03-11.196,5.738-17.656
	c-3.29-6.462-11.196-9.032-17.656-5.738l-14.037,7.151c-6.46,3.291-9.03,11.196-5.738,17.656
	C363.594,217.412,368.203,220.033,372.983,220.033z"/>
<path d="M184.701,155.488c2.318,4.553,6.926,7.172,11.708,7.172c2.005,0,4.04-0.461,5.948-1.434
	c6.46-3.291,9.03-11.196,5.738-17.656l-7.151-14.037c-3.29-6.462-11.196-9.032-17.656-5.738c-6.46,3.291-9.03,11.196-5.738,17.656
	L184.701,155.488z"/>
</svg>