<?xml version="1.0" encoding="iso-8859-1"?>
<!-- Uploaded to: SVG Repo, www.svgrepo.com, Generator: SVG Repo Mixer Tools -->
<svg height="800px" width="800px" version="1.1" id="Layer_1" xmlns="http://www.w3.org/2000/svg" xmlns:xlink="http://www.w3.org/1999/xlink" 
	 viewBox="0 0 503.322 503.322" xml:space="preserve">
<path style="fill:#546080;" d="M295.051,34.712V17.356C295.051,7.81,287.241,0,277.695,0h-52.068
	c-9.546,0-17.356,7.81-17.356,17.356v17.356h-34.712c-5.207,0-8.678,3.471-8.678,8.678v60.746c0,5.207,3.471,8.678,8.678,8.678
	h156.203c5.207,0,8.678-3.471,8.678-8.678V43.39c0-5.207-3.471-8.678-8.678-8.678H295.051z"/>
<path style="fill:#EFEADD;" d="M338.441,60.746v43.39c0,5.207-3.471,8.678-8.678,8.678H173.559c-5.207,0-8.678-4.339-8.678-8.678
	v-43.39h-52.068c-19.092,0-34.712,15.62-34.712,34.712V468.61c0,19.092,15.62,34.712,34.712,34.712h277.695
	c19.092,0,34.712-15.62,34.712-34.712V95.458c0-19.092-15.62-34.712-34.712-34.712H338.441z"/>
<g>
	<path style="fill:#76C9B0;" d="M361.871,355.797l-61.614-93.722c-8.678-13.017-26.902-13.017-35.58,0l-42.522,65.085
		l-20.827-41.654c-5.207-10.414-19.959-10.414-25.166,0l-35.58,71.159c-6.075,11.281,2.603,25.166,15.62,25.166h190.915
		C361.003,381.831,368.814,367.078,361.871,355.797"/>
	<path style="fill:#76C9B0;" d="M190.915,216.949c0-14.753-11.281-26.034-26.034-26.034c-14.753,0-26.034,11.281-26.034,26.034
		s11.281,26.034,26.034,26.034C179.634,242.983,190.915,231.702,190.915,216.949"/>
</g>
</svg>