<?xml version="1.0" encoding="iso-8859-1"?>
<!-- Uploaded to: SVG Repo, www.svgrepo.com, Generator: SVG Repo Mixer Tools -->
<svg version="1.1" id="Layer_1" xmlns="http://www.w3.org/2000/svg" xmlns:xlink="http://www.w3.org/1999/xlink" 
	 viewBox="0 0 512 512" xml:space="preserve">
<path style="fill:#947C7C;" d="M429.035,501.801H82.964c-12.304,0-22.279-9.975-22.279-22.279V32.478
	c0-12.304,9.975-22.279,22.279-22.279h346.072c12.304,0,22.279,9.975,22.279,22.279v447.044
	C451.314,491.826,441.339,501.801,429.035,501.801z"/>
<polygon style="fill:#FFD890;" points="176.369,455.904 393.138,455.904 393.138,56.096 118.861,56.096 118.861,398.396 "/>
<polygon style="fill:#FF9839;" points="177.336,397.011 177.474,454.52 119.965,397.011 "/>
<rect x="175.365" y="10.199" style="fill:#95DEED;" width="161.28" height="68.335"/>
<g>
	<path style="fill:#4C1D1D;" d="M82.964,0C65.055,0,50.486,14.57,50.486,32.478v447.044c0,17.908,14.57,32.477,32.478,32.477
		h346.072c17.909,0,32.478-14.57,32.478-32.478V32.478C461.513,14.57,446.944,0,429.035,0H82.964z M187.652,445.705l-0.116-48.719
		c-0.013-5.624-4.575-10.176-10.199-10.176H129.06V66.295h36.102v12.239c0,5.632,4.566,10.199,10.199,10.199h161.277
		c5.633,0,10.199-4.567,10.199-10.199V66.295h36.102v379.41H187.652z M167.222,432.332L142.1,407.21h25.061L167.222,432.332z
		 M326.438,20.398v47.936H185.561V20.398H326.438z M441.115,479.522c0,6.66-5.419,12.08-12.08,12.08H82.964
		c-6.661,0-12.08-5.419-12.08-12.08V32.478c0-6.661,5.419-12.08,12.08-12.08h82.198v25.498h-46.301
		c-5.633,0-10.199,4.567-10.199,10.199v342.3c0,2.705,1.075,5.298,2.987,7.212l57.509,57.509c1.912,1.912,4.507,2.987,7.212,2.987
		h216.768c5.633,0,10.199-4.567,10.199-10.199V56.096c0-5.632-4.566-10.199-10.199-10.199h-46.301V20.398h82.198
		c6.661,0,12.08,5.419,12.08,12.08V479.522z"/>
	<path style="fill:#4C1D1D;" d="M174.818,326.527h-3.079c-5.633,0-10.199,4.567-10.199,10.199c0,5.632,4.566,10.199,10.199,10.199
		h3.079c5.633,0,10.199-4.567,10.199-10.199C185.017,331.095,180.451,326.527,174.818,326.527z"/>
	<path style="fill:#4C1D1D;" d="M340.26,326.527H211.115c-5.633,0-10.199,4.567-10.199,10.199c0,5.632,4.566,10.199,10.199,10.199
		H340.26c5.633,0,10.199-4.567,10.199-10.199C350.459,331.095,345.893,326.527,340.26,326.527z"/>
	<path style="fill:#4C1D1D;" d="M340.26,261.828H171.739c-5.633,0-10.199,4.567-10.199,10.199c0,5.632,4.566,10.199,10.199,10.199
		H340.26c5.633,0,10.199-4.567,10.199-10.199C350.459,266.395,345.893,261.828,340.26,261.828z"/>
	<path style="fill:#4C1D1D;" d="M340.26,197.127H171.739c-5.633,0-10.199,4.567-10.199,10.199s4.566,10.199,10.199,10.199H340.26
		c5.633,0,10.199-4.567,10.199-10.199S345.893,197.127,340.26,197.127z"/>
	<path style="fill:#4C1D1D;" d="M340.26,131.57H171.739c-5.633,0-10.199,4.567-10.199,10.199c0,5.632,4.566,10.199,10.199,10.199
		H340.26c5.633,0,10.199-4.567,10.199-10.199C350.459,136.137,345.893,131.57,340.26,131.57z"/>
</g>
</svg>